<?xml version="1.0" encoding="utf-8"?>
<!-- Generator: Adobe Illustrator 27.0.1, SVG Export Plug-In . SVG Version: 6.00 Build 0)  -->
<svg version="1.1"
	 id="Layer_1" shape-rendering="geometricPrecision" image-rendering="optimizeQuality" text-rendering="geometricPrecision"
	 xmlns="http://www.w3.org/2000/svg" xmlns:xlink="http://www.w3.org/1999/xlink" x="0px" y="0px" viewBox="0 0 512 512"
	 style="enable-background:new 0 0 512 512;" xml:space="preserve">
<path d="M284.8,256c0,70.5-56.7,127.6-126.7,127.6c-70,0-126.7-57.1-126.7-127.6c0-70.5,56.7-127.6,126.7-127.6
	S284.8,185.5,284.8,256z M423.8,256c0,66.3-28.4,120.1-63.4,120.1c-35,0-63.4-53.8-63.4-120.1c0-66.3,28.4-120.1,63.4-120.1
	C395.5,135.9,423.8,189.7,423.8,256z M480.7,256c0,59.4-10,107.6-22.3,107.6c-12.3,0-22.3-48.2-22.3-107.6
	c0-59.4,10-107.6,22.3-107.6S480.7,196.6,480.7,256z"/>
<link  id="dark-mode" rel="stylesheet" type="text/css"></link>
</svg>
